HIERARCHY
ROOT Hips
{
	OFFSET 0.000000 0.000000 0.000000
	CHANNELS 6 Xposition Yposition Zposition Zrotation Yrotation Xrotation 
	JOINT Hips_Spine
	{
		OFFSET 0.000000 0.000000 0.000000
		CHANNELS 3 Zrotation Yrotation Xrotation
		JOINT Spine
		{
			OFFSET 0.005100 8.711998 -0.691000
			CHANNELS 3 Zrotation Yrotation Xrotation
			JOINT Spine1
			{
				OFFSET -0.009200 8.660301 -1.275000
				CHANNELS 3 Zrotation Yrotation Xrotation
				JOINT Spine2
				{
					OFFSET 0.006300 9.852501 -1.857000
					CHANNELS 3 Zrotation Yrotation Xrotation
					JOINT Spine2_Neck
					{
						OFFSET 0.000000 0.000000 0.000000
						CHANNELS 3 Zrotation Yrotation Xrotation
						JOINT Neck
						{
							OFFSET 0.016300 11.420799 -0.263300
							CHANNELS 3 Zrotation Yrotation Xrotation
							End Site #name: Head
							{
								OFFSET -0.019200 9.262405 2.362500
							}
						}
					}
					JOINT Spine2_LeftShoulder
					{
						OFFSET 0.000000 0.000000 0.000000
						CHANNELS 3 Zrotation Yrotation Xrotation
						JOINT LeftShoulder
						{
							OFFSET 5.616900 6.732201 -0.345700
							CHANNELS 3 Zrotation Yrotation Xrotation
							JOINT LeftArm
							{
								OFFSET 10.664888 -0.183372 -2.440700
								CHANNELS 3 Zrotation Yrotation Xrotation
								JOINT LeftForeArm
								{
									OFFSET 27.459126 0.000000 0.000000
									CHANNELS 3 Zrotation Yrotation Xrotation
									End Site #name: LeftHand
									{
										OFFSET 21.306858 0.000000 0.000000
									}
								}
							}
						}
					}
					JOINT Spine2_RightShoulder
					{
						OFFSET 0.000000 0.000000 0.000000
						CHANNELS 3 Zrotation Yrotation Xrotation
						JOINT RightShoulder
						{
							OFFSET -5.580300 6.737503 -0.344400
							CHANNELS 3 Zrotation Yrotation Xrotation
							JOINT RightArm
							{
								OFFSET -10.679335 -0.188484 -2.383900
								CHANNELS 3 Zrotation Yrotation Xrotation
								JOINT RightForeArm
								{
									OFFSET -27.503529 0.000000 0.000000
									CHANNELS 3 Zrotation Yrotation Xrotation
									End Site #name: RightHand
									{
										OFFSET -21.306808 0.000000 0.000000
									}
								}
							}
						}
					}
				}
			}
		}
	}
	JOINT Hips_LeftUpLeg
	{
		OFFSET 0.000000 0.000000 0.000000
		CHANNELS 3 Zrotation Yrotation Xrotation
		JOINT LeftUpLeg
		{
			OFFSET 6.857700 -6.739601 0.312100
			CHANNELS 3 Zrotation Yrotation Xrotation
			JOINT LeftLeg
			{
				OFFSET -0.367590 -34.731552 -4.572400
				CHANNELS 3 Zrotation Yrotation Xrotation
				End Site #name: LeftFoot
				{
					OFFSET 0.367590 -34.656704 -6.067400
				}
			}
		}
	}
	JOINT Hips_RightUpLeg
	{
		OFFSET 0.000000 0.000000 0.000000
		CHANNELS 3 Zrotation Yrotation Xrotation
		JOINT RightUpLeg
		{
			OFFSET -6.876100 -6.733299 0.301000
			CHANNELS 3 Zrotation Yrotation Xrotation
			JOINT RightLeg
			{
				OFFSET 0.347353 -34.795158 -4.515900
				CHANNELS 3 Zrotation Yrotation Xrotation
				End Site #name: RightFoot
				{
					OFFSET -0.347353 -34.589367 -6.070300
				}
			}
		}
	}
}
MOTION
Frames: 11
Frame Time: 0.041667
0.199447 0.054780 0.061811 -0.691311 0.986405 1.603166 -0.000000 -0.000000 -0.000000 3.404758 1.065858 1.748426 -0.168668 0.483394 1.526144 0.000000 0.000000 0.000000 -0.177229 0.722540 1.118447 2.786358 -0.788169 4.913195 -0.331273 0.772443 0.459494 -14.193195 -6.165625 2.392905 -73.764738 9.449281 23.784809 -0.387439 1.790410 -0.548324 -0.058563 0.575577 0.716894 15.020679 2.686863 3.148804 76.705175 5.136575 10.092080 0.746452 -0.481251 -0.825880 -0.000000 -0.000000 0.000000 1.981307 8.873911 -17.100629 3.764659 5.311123 17.429944 -0.000000 0.000000 -0.000000 -3.140861 -10.719103 -20.263767 -4.304697 -2.616003 17.386093 
0.528154 0.167985 -0.003213 -0.073930 0.289636 1.962278 0.000000 -0.000000 -0.000000 3.418239 0.960080 2.505636 -0.063690 0.506437 1.048928 0.000000 0.000000 0.000000 0.119902 0.547775 1.583943 2.400919 -1.313197 4.373681 0.239505 0.528081 1.194379 -14.957153 -8.336417 3.687108 -72.313379 2.538150 17.509305 -0.011475 -7.239628 -0.062212 0.030876 0.264713 1.049085 12.785325 3.878514 2.280242 73.910503 -2.381408 11.735282 0.061352 12.538317 0.044173 -0.000000 -0.000000 0.000000 1.444798 9.353765 -16.510846 3.182260 6.711016 16.121833 0.000000 0.000000 -0.000000 -4.143876 -10.677213 -19.755481 -4.787082 -4.805742 15.427829 
0.900971 0.170064 0.121366 0.176297 -0.201035 2.121369 0.000000 -0.000000 -0.000000 1.314186 0.812300 1.901535 -0.050093 0.476280 1.654189 0.000000 0.000000 0.000000 0.114007 0.547160 1.420385 2.462489 -1.549000 4.150479 0.042228 0.450398 1.096627 -14.272694 -9.521435 3.949472 -71.199864 -3.449050 21.610488 0.071920 -5.144528 0.188019 0.034750 0.255698 1.132384 14.507104 5.649123 3.955465 70.468371 -1.563876 20.987654 -0.024682 10.153694 0.127211 -0.000000 -0.000000 0.000000 0.896987 8.911201 -15.853693 2.927464 6.845412 15.121222 -0.000000 0.000000 -0.000000 -4.777059 -11.103843 -19.323633 -4.794553 -5.528737 14.288767 
1.343676 0.139058 0.220494 0.189083 -0.644073 1.996736 0.000000 -0.000000 -0.000000 0.377092 0.640545 1.879247 0.006166 0.505259 1.620809 0.000000 0.000000 0.000000 0.144861 0.530011 1.385894 2.006535 -1.601796 3.225000 0.019253 0.389554 1.273208 -13.943524 -8.310410 3.554737 -71.707797 -4.851107 22.335839 0.010333 -3.370789 0.024528 0.009297 0.339242 0.846965 16.723817 3.293017 5.209673 67.021032 0.461052 28.534976 -0.001409 9.571380 0.058402 -0.000000 -0.000000 0.000000 0.580237 8.644492 -15.517909 2.754394 6.879977 15.069663 -0.000000 0.000000 -0.000000 -5.226211 -11.214942 -19.004265 -4.529031 -5.195841 13.856640 
1.863759 0.078662 0.264139 0.118712 -1.068568 1.749549 0.000000 -0.000000 -0.000000 0.244171 0.554055 1.777287 -0.006289 0.529543 1.584263 0.000000 0.000000 0.000000 0.072381 0.564897 1.301818 1.772211 -1.512599 2.772765 0.021799 0.422076 1.151974 -14.103136 -7.837840 3.475467 -71.010712 -4.712987 21.816464 -0.003475 -3.337557 -0.098859 -0.019761 0.340930 0.781287 17.472741 2.689880 5.783826 65.794250 1.815448 32.480896 -0.002140 10.425167 0.024978 -0.000000 -0.000000 0.000000 0.356255 8.517250 -15.306101 2.632388 6.961189 15.368105 -0.000000 0.000000 -0.000000 -5.625792 -11.217504 -18.776016 -4.365186 -4.922300 13.723247 
2.415029 -0.002389 0.262882 0.055479 -1.389400 1.505115 0.000000 -0.000000 -0.000000 0.043715 0.576721 1.655531 -0.031391 0.562983 1.548938 0.000000 0.000000 0.000000 0.011537 0.621603 1.242922 1.819135 -1.428477 2.873217 0.023735 0.486251 1.043339 -14.140758 -8.131941 3.529321 -70.457826 -4.403208 21.445126 -0.000826 -4.132469 -0.078706 -0.065404 0.344179 0.785989 17.535436 3.001549 5.969792 65.193466 3.308141 33.427404 -0.038422 11.966397 -0.009654 -0.000000 -0.000000 0.000000 0.174637 8.466050 -15.244310 2.488020 7.114995 15.856952 -0.000000 0.000000 -0.000000 -6.031204 -11.253714 -18.692397 -4.297375 -4.916204 13.853123 
2.952265 -0.094851 0.228348 -0.052669 -1.639370 1.280117 0.000000 -0.000000 -0.000000 -0.110905 0.590749 1.628661 -0.051517 0.588210 1.531292 0.000000 0.000000 0.000000 -0.009914 0.651888 1.230358 1.927742 -1.446346 3.538530 0.029216 0.500366 0.986420 -14.073334 -8.569060 3.588077 -70.222206 -4.568295 21.690773 0.011547 -5.155486 -0.074031 -0.108022 0.346207 0.782249 17.139609 3.023211 5.719530 65.177242 3.784142 33.459849 -0.053315 12.632915 -0.019646 -0.000000 -0.000000 0.000000 0.080273 8.473713 -15.214309 2.334024 7.261887 16.344170 -0.000000 0.000000 -0.000000 -6.386471 -11.295496 -18.667352 -4.266989 -5.044420 14.080381 
3.431245 -0.188711 0.171917 -0.210513 -1.817990 1.085879 0.000000 -0.000000 -0.000000 -0.232744 0.609026 1.668952 -0.048917 0.605972 1.562867 0.000000 0.000000 0.000000 0.018538 0.677194 1.281398 1.989842 -1.555007 4.193593 0.062918 0.502359 0.999684 -13.928858 -9.022619 3.668782 -70.040972 -4.872872 22.061760 0.019849 -6.147589 -0.071013 -0.099328 0.343495 0.813537 16.580493 3.143714 5.454172 65.369496 3.373124 32.434208 -0.058069 13.107714 -0.017404 -0.000000 -0.000000 0.000000 0.038870 8.480335 -15.225603 2.204739 7.390918 16.808506 -0.000000 0.000000 -0.000000 -6.660633 -11.333451 -18.639441 -4.265809 -5.224295 14.256514 
3.807091 -0.274715 0.105124 -0.411624 -1.944501 0.933666 0.000000 -0.000000 -0.000000 -0.369018 0.679601 1.687597 -0.021717 0.634855 1.631006 0.000000 0.000000 0.000000 0.082283 0.714683 1.365653 1.939865 -1.677289 4.640483 0.102336 0.525388 1.076098 -13.937383 -9.319744 3.744933 -69.819904 -5.061875 21.988768 0.021526 -7.144473 -0.049424 -0.053914 0.349928 0.906109 16.111484 3.554187 5.397460 65.367729 3.010540 30.059899 -0.065721 13.532761 -0.002359 -0.000000 -0.000000 0.000000 0.039707 8.452261 -15.278920 2.092650 7.522067 17.227552 -0.000000 0.000000 -0.000000 -6.849168 -11.358904 -18.616901 -4.275954 -5.407436 14.368323 
4.079388 -0.348417 0.030339 -0.580782 -2.018975 0.819290 0.000000 -0.000000 -0.000000 -0.551959 0.820962 1.704883 0.008010 0.680943 1.720726 0.000000 0.000000 0.000000 0.129663 0.753249 1.473427 1.832402 -1.790937 4.888096 0.134296 0.570302 1.184107 -14.060914 -9.475019 3.788346 -69.561917 -5.252759 21.503315 0.024950 -8.231528 -0.034917 -0.007512 0.390472 1.029579 15.738666 4.252440 5.447327 65.382840 2.830415 26.518756 -0.072530 13.963987 0.023047 -0.000000 -0.000000 0.000000 0.089679 8.401358 -15.345263 1.993511 7.644707 17.563151 -0.000000 0.000000 -0.000000 -6.951847 -11.377653 -18.592661 -4.263132 -5.515260 14.413703 
4.247739 -0.405527 -0.050242 -0.713076 -2.054292 0.730164 0.000000 -0.000000 -0.000000 -0.754196 1.001903 1.666270 0.027867 0.740471 1.820546 0.000000 0.000000 0.000000 0.150992 0.812522 1.574553 1.661915 -1.878808 5.005675 0.140278 0.641900 1.306511 -14.195538 -9.521752 3.770670 -69.393936 -5.485067 20.736100 0.028872 -9.330401 -0.019617 0.021482 0.449096 1.158504 15.423751 5.051925 5.615442 65.391999 3.028692 22.071282 -0.085270 14.929218 0.052952 -0.000000 -0.000000 0.000000 0.185868 8.343658 -15.402942 1.912973 7.760884 17.802720 -0.000000 0.000000 -0.000000 -6.971922 -11.384080 -18.554880 -4.215038 -5.504258 14.391972 
